<svg 
xmlns="http://www.w3.org/2000/svg" 
viewBox="0 0 841.9 595.3">
<g fill="#004cbb">
<path d="M0 43L12.5 45C25 47 50 51 75 56C100 61 125 67 150 70C175 73 200 73 225 75C250 77 275 81 300 74C325 67 350 49 375 47C400 45 425 59 450 68C475 77 500 81 525 75C550 69 575 53 600 45C625 37 650 37 675 43C700 49 725 61 750 60C775 59 800 45 825 48C850 51 875 71 887.5 81L900 91L900 0L887.5 0C875 0 850 0 825 0C800 0 775 0 750 0C725 0 700 0 675 0C650 0 625 0 600 0C575 0 550 0 525 0C500 0 475 0 450 0C425 0 400 0 375 0C350 0 325 0 300 0C275 0 250 0 225 0C200 0 175 0 150 0C125 0 100 0 75 0C50 0 25 0 12.5 0L0 0Z" fill="#6198ff"></path><path d="M0 109L12.5 110C25 111 50 113 75 121C100 129 125 143 150 152C175 161 200 165 225 160C250 155 275 141 300 124C325 107 350 87 375 94C400 101 425 135 450 147C475 159 500 149 525 137C550 125 575 111 600 99C625 87 650 77 675 83C700 89 725 111 750 114C775 117 800 101 825 106C850 111 875 137 887.5 150L900 163L900 89L887.5 79C875 69 850 49 825 46C800 43 775 57 750 58C725 59 700 47 675 41C650 35 625 35 600 43C575 51 550 67 525 73C500 79 475 75 450 66C425 57 400 43 375 45C350 47 325 65 300 72C275 79 250 75 225 73C200 71 175 71 150 68C125 65 100 59 75 54C50 49 25 45 12.5 43L0 41Z" fill="#4385ff"></path><path d="M0 187L12.5 183C25 179 50 171 75 176C100 181 125 199 150 205C175 211 200 205 225 207C250 209 275 219 300 207C325 195 350 161 375 166C400 171 425 215 450 222C475 229 500 199 525 185C550 171 575 173 600 161C625 149 650 123 675 126C700 129 725 161 750 177C775 193 800 193 825 205C850 217 875 241 887.5 253L900 265L900 161L887.5 148C875 135 850 109 825 104C800 99 775 115 750 112C725 109 700 87 675 81C650 75 625 85 600 97C575 109 550 123 525 135C500 147 475 157 450 145C425 133 400 99 375 92C350 85 325 105 300 122C275 139 250 153 225 158C200 163 175 159 150 150C125 141 100 127 75 119C50 111 25 109 12.5 108L0 107Z" fill="#2071ff"></path><path d="M0 343L12.5 327C25 311 50 279 75 273C100 267 125 287 150 316C175 345 200 383 225 379C250 375 275 329 300 316C325 303 350 323 375 339C400 355 425 367 450 350C475 333 500 287 525 285C550 283 575 325 600 339C625 353 650 339 675 344C700 349 725 373 750 366C775 359 800 321 825 329C850 337 875 391 887.5 418L900 445L900 263L887.5 251C875 239 850 215 825 203C800 191 775 191 750 175C725 159 700 127 675 124C650 121 625 147 600 159C575 171 550 169 525 183C500 197 475 227 450 220C425 213 400 169 375 164C350 159 325 193 300 205C275 217 250 207 225 205C200 203 175 209 150 203C125 197 100 179 75 174C50 169 25 177 12.5 181L0 185Z" fill="#0061f1"></path><path d="M0 505L12.5 503C25 501 50 497 75 489C100 481 125 469 150 473C175 477 200 497 225 504C250 511 275 505 300 500C325 495 350 491 375 487C400 483 425 479 450 488C475 497 500 519 525 522C550 525 575 509 600 496C625 483 650 473 675 482C700 491 725 519 750 535C775 551 800 555 825 550C850 545 875 531 887.5 524L900 517L900 443L887.5 416C875 389 850 335 825 327C800 319 775 357 750 364C725 371 700 347 675 342C650 337 625 351 600 337C575 323 550 281 525 283C500 285 475 331 450 348C425 365 400 353 375 337C350 321 325 301 300 314C275 327 250 373 225 377C200 381 175 343 150 314C125 285 100 265 75 271C50 277 25 309 12.5 325L0 341Z" fill="#0056d6"></path><path d="M0 601L12.5 601C25 601 50 601 75 601C100 601 125 601 150 601C175 601 200 601 225 601C250 601 275 601 300 601C325 601 350 601 375 601C400 601 425 601 450 601C475 601 500 601 525 601C550 601 575 601 600 601C625 601 650 601 675 601C700 601 725 601 750 601C775 601 800 601 825 601C850 601 875 601 887.5 601L900 601L900 515L887.5 522C875 529 850 543 825 548C800 553 775 549 750 533C725 517 700 489 675 480C650 471 625 481 600 494C575 507 550 523 525 520C500 517 475 495 450 486C425 477 400 481 375 485C350 489 325 493 300 498C275 503 250 509 225 502C200 495 175 475 150 471C125 467 100 479 75 487C50 495 25 499 12.5 501L0 503Z"/>

</g>

</svg>